<?xml version="1.0" encoding="UTF-8" standalone="no"?>
<!DOCTYPE svg PUBLIC "-//W3C//DTD SVG 1.1//EN"
 "http://www.w3.org/Graphics/SVG/1.1/DTD/svg11.dtd">
<!-- Generated by graphviz version 2.38.0 (20140413.2041)
 -->
<!-- Title: G Pages: 1 -->
<svg width="577pt" height="1022pt"
 viewBox="0.00 0.00 577.39 1022.00" xmlns="http://www.w3.org/2000/svg" xmlns:xlink="http://www.w3.org/1999/xlink">
<g id="graph0" class="graph" transform="scale(1 1) rotate(0) translate(4 1018)">
<title>G</title>
<polygon fill="white" stroke="none" points="-4,4 -4,-1018 573.388,-1018 573.388,4 -4,4"/>
<g id="clust1" class="cluster"><title>cluster_Global</title>
<path fill="none" stroke="gray" d="M192.388,-8C192.388,-8 549.388,-8 549.388,-8 555.388,-8 561.388,-14 561.388,-20 561.388,-20 561.388,-994 561.388,-994 561.388,-1000 555.388,-1006 549.388,-1006 549.388,-1006 192.388,-1006 192.388,-1006 186.388,-1006 180.388,-1000 180.388,-994 180.388,-994 180.388,-20 180.388,-20 180.388,-14 186.388,-8 192.388,-8"/>
<text text-anchor="middle" x="370.888" y="-993.2" font-family="Times New Roman,serif" font-size="11.00" fill="gray">Global</text>
</g>
<g id="clust2" class="cluster"><title>cluster_\Battis</title>
<path fill="none" stroke="gray" d="M200.388,-16C200.388,-16 541.388,-16 541.388,-16 547.388,-16 553.388,-22 553.388,-28 553.388,-28 553.388,-966 553.388,-966 553.388,-972 547.388,-978 541.388,-978 541.388,-978 200.388,-978 200.388,-978 194.388,-978 188.388,-972 188.388,-966 188.388,-966 188.388,-28 188.388,-28 188.388,-22 194.388,-16 200.388,-16"/>
<text text-anchor="middle" x="370.888" y="-965.2" font-family="Times New Roman,serif" font-size="11.00" fill="gray">Battis</text>
</g>
<g id="clust3" class="cluster"><title>cluster_\Battis\SharedLogs</title>
<path fill="none" stroke="gray" d="M208.388,-24C208.388,-24 533.388,-24 533.388,-24 539.388,-24 545.388,-30 545.388,-36 545.388,-36 545.388,-938 545.388,-938 545.388,-944 539.388,-950 533.388,-950 533.388,-950 208.388,-950 208.388,-950 202.388,-950 196.388,-944 196.388,-938 196.388,-938 196.388,-36 196.388,-36 196.388,-30 202.388,-24 208.388,-24"/>
<text text-anchor="middle" x="370.888" y="-937.2" font-family="Times New Roman,serif" font-size="11.00" fill="gray">SharedLogs</text>
</g>
<g id="clust4" class="cluster"><title>cluster_\Battis\SharedLogs\Database</title>
<path fill="none" stroke="gray" d="M216.388,-408C216.388,-408 525.388,-408 525.388,-408 531.388,-408 537.388,-414 537.388,-420 537.388,-420 537.388,-910 537.388,-910 537.388,-916 531.388,-922 525.388,-922 525.388,-922 216.388,-922 216.388,-922 210.388,-922 204.388,-916 204.388,-910 204.388,-910 204.388,-420 204.388,-420 204.388,-414 210.388,-408 216.388,-408"/>
<text text-anchor="middle" x="370.888" y="-909.2" font-family="Times New Roman,serif" font-size="11.00" fill="gray">Database</text>
</g>
<g id="clust5" class="cluster"><title>cluster_\Battis\SharedLogs\Database\Bindings</title>
<path fill="none" stroke="gray" d="M364.388,-416C364.388,-416 517.388,-416 517.388,-416 523.388,-416 529.388,-422 529.388,-428 529.388,-428 529.388,-882 529.388,-882 529.388,-888 523.388,-894 517.388,-894 517.388,-894 364.388,-894 364.388,-894 358.388,-894 352.388,-888 352.388,-882 352.388,-882 352.388,-428 352.388,-428 352.388,-422 358.388,-416 364.388,-416"/>
<text text-anchor="middle" x="440.888" y="-881.2" font-family="Times New Roman,serif" font-size="11.00" fill="gray">Bindings</text>
</g>
<g id="clust6" class="cluster"><title>cluster_\Battis\SharedLogs\Database\Bindings\Traits</title>
<path fill="none" stroke="gray" d="M372.388,-632C372.388,-632 509.388,-632 509.388,-632 515.388,-632 521.388,-638 521.388,-644 521.388,-644 521.388,-854 521.388,-854 521.388,-860 515.388,-866 509.388,-866 509.388,-866 372.388,-866 372.388,-866 366.388,-866 360.388,-860 360.388,-854 360.388,-854 360.388,-644 360.388,-644 360.388,-638 366.388,-632 372.388,-632"/>
<text text-anchor="middle" x="440.888" y="-853.2" font-family="Times New Roman,serif" font-size="11.00" fill="gray">Traits</text>
</g>
<g id="clust8" class="cluster"><title>cluster_\Battis\SharedLogs\Objects</title>
<path fill="none" stroke="gray" d="M416.388,-166C416.388,-166 465.388,-166 465.388,-166 471.388,-166 477.388,-172 477.388,-178 477.388,-178 477.388,-388 477.388,-388 477.388,-394 471.388,-400 465.388,-400 465.388,-400 416.388,-400 416.388,-400 410.388,-400 404.388,-394 404.388,-388 404.388,-388 404.388,-178 404.388,-178 404.388,-172 410.388,-166 416.388,-166"/>
<text text-anchor="middle" x="440.888" y="-387.2" font-family="Times New Roman,serif" font-size="11.00" fill="gray">Objects</text>
</g>
<g id="clust7" class="cluster"><title>cluster_\Battis\SharedLogs\Exceptions</title>
<path fill="none" stroke="gray" d="M382.388,-32C382.388,-32 499.388,-32 499.388,-32 505.388,-32 511.388,-38 511.388,-44 511.388,-44 511.388,-146 511.388,-146 511.388,-152 505.388,-158 499.388,-158 499.388,-158 382.388,-158 382.388,-158 376.388,-158 370.388,-152 370.388,-146 370.388,-146 370.388,-44 370.388,-44 370.388,-38 376.388,-32 382.388,-32"/>
<text text-anchor="middle" x="440.888" y="-145.2" font-family="Times New Roman,serif" font-size="11.00" fill="gray">Exceptions</text>
</g>
<!-- \\Battis\\SharedLogs\\Database\\Bindings\\Traits\\EntriesBindingTrait -->
<g id="node1" class="node"><title>\\Battis\\SharedLogs\\Database\\Bindings\\Traits\\EntriesBindingTrait</title>
<polygon fill="none" stroke="black" points="513.388,-838 368.388,-838 368.388,-802 513.388,-802 513.388,-838"/>
<text text-anchor="middle" x="440.888" y="-817.2" font-family="Courier,monospace" font-size="11.00">EntriesBindingTrait</text>
</g>
<!-- \\Battis\\SharedLogs\\Database\\Bindings\\Traits\\DevicesBindingTrait -->
<g id="node2" class="node"><title>\\Battis\\SharedLogs\\Database\\Bindings\\Traits\\DevicesBindingTrait</title>
<polygon fill="none" stroke="black" points="513.388,-784 368.388,-784 368.388,-748 513.388,-748 513.388,-784"/>
<text text-anchor="middle" x="440.888" y="-763.2" font-family="Courier,monospace" font-size="11.00">DevicesBindingTrait</text>
</g>
<!-- \\Battis\\SharedLogs\\Database\\Bindings\\Traits\\LogsBindingTrait -->
<g id="node3" class="node"><title>\\Battis\\SharedLogs\\Database\\Bindings\\Traits\\LogsBindingTrait</title>
<polygon fill="none" stroke="black" points="503.388,-730 378.388,-730 378.388,-694 503.388,-694 503.388,-730"/>
<text text-anchor="middle" x="440.888" y="-709.2" font-family="Courier,monospace" font-size="11.00">LogsBindingTrait</text>
</g>
<!-- \\Battis\\SharedLogs\\Database\\Bindings\\Traits\\UsersBindingTrait -->
<g id="node4" class="node"><title>\\Battis\\SharedLogs\\Database\\Bindings\\Traits\\UsersBindingTrait</title>
<polygon fill="none" stroke="black" points="506.388,-676 375.388,-676 375.388,-640 506.388,-640 506.388,-676"/>
<text text-anchor="middle" x="440.888" y="-655.2" font-family="Courier,monospace" font-size="11.00">UsersBindingTrait</text>
</g>
<!-- \\Battis\\SharedLogs\\Database\\Bindings\\LogsBinding -->
<g id="node5" class="node"><title>\\Battis\\SharedLogs\\Database\\Bindings\\LogsBinding</title>
<polygon fill="none" stroke="black" points="486.388,-622 395.388,-622 395.388,-586 486.388,-586 486.388,-622"/>
<text text-anchor="middle" x="440.888" y="-601.2" font-family="Courier,monospace" font-size="11.00">LogsBinding</text>
</g>
<!-- \\Battis\\SharedLogs\\Database\\Binding -->
<g id="node9" class="node"><title>\\Battis\\SharedLogs\\Database\\Binding</title>
<polygon fill="none" stroke="black" points="296.388,-541 212.388,-541 212.388,-505 296.388,-505 296.388,-541"/>
<text text-anchor="start" x="220.388" y="-526.2" font-family="Courier,monospace" font-size="11.00">«abstract»</text>
<text text-anchor="start" x="230.388" y="-514.2" font-family="Courier,monospace" font-size="11.00">Binding</text>
</g>
<!-- \\Battis\\SharedLogs\\Database\\Bindings\\LogsBinding&#45;&gt;\\Battis\\SharedLogs\\Database\\Binding -->
<g id="edge2" class="edge"><title>\\Battis\\SharedLogs\\Database\\Bindings\\LogsBinding&#45;&gt;\\Battis\\SharedLogs\\Database\\Binding</title>
<path fill="none" stroke="black" d="M395.177,-592.164C381.25,-587.958 365.984,-582.807 352.388,-577 332.162,-568.362 310.694,-556.695 293.111,-546.417"/>
<polygon fill="none" stroke="black" points="294.684,-543.28 284.297,-541.191 291.114,-549.302 294.684,-543.28"/>
</g>
<!-- \\Battis\\SharedLogs\\Database\\Bindings\\UsersBinding -->
<g id="node6" class="node"><title>\\Battis\\SharedLogs\\Database\\Bindings\\UsersBinding</title>
<polygon fill="none" stroke="black" points="489.888,-568 391.888,-568 391.888,-532 489.888,-532 489.888,-568"/>
<text text-anchor="middle" x="440.888" y="-547.2" font-family="Courier,monospace" font-size="11.00">UsersBinding</text>
</g>
<!-- \\Battis\\SharedLogs\\Database\\Bindings\\UsersBinding&#45;&gt;\\Battis\\SharedLogs\\Database\\Binding -->
<g id="edge4" class="edge"><title>\\Battis\\SharedLogs\\Database\\Bindings\\UsersBinding&#45;&gt;\\Battis\\SharedLogs\\Database\\Binding</title>
<path fill="none" stroke="black" d="M391.412,-542.906C365.398,-539.099 333.338,-534.407 306.878,-530.535"/>
<polygon fill="none" stroke="black" points="307.065,-527.025 296.664,-529.04 306.052,-533.952 307.065,-527.025"/>
</g>
<!-- \\Battis\\SharedLogs\\Database\\Bindings\\DevicesBinding -->
<g id="node7" class="node"><title>\\Battis\\SharedLogs\\Database\\Bindings\\DevicesBinding</title>
<polygon fill="none" stroke="black" points="496.388,-514 385.388,-514 385.388,-478 496.388,-478 496.388,-514"/>
<text text-anchor="middle" x="440.888" y="-493.2" font-family="Courier,monospace" font-size="11.00">DevicesBinding</text>
</g>
<!-- \\Battis\\SharedLogs\\Database\\Bindings\\DevicesBinding&#45;&gt;\\Battis\\SharedLogs\\Database\\Binding -->
<g id="edge10" class="edge"><title>\\Battis\\SharedLogs\\Database\\Bindings\\DevicesBinding&#45;&gt;\\Battis\\SharedLogs\\Database\\Binding</title>
<path fill="none" stroke="black" d="M385.031,-504.028C360.215,-507.659 331.053,-511.927 306.678,-515.494"/>
<polygon fill="none" stroke="black" points="305.939,-512.065 296.552,-516.976 306.953,-518.991 305.939,-512.065"/>
</g>
<!-- \\Battis\\SharedLogs\\Database\\Bindings\\EntriesBinding -->
<g id="node8" class="node"><title>\\Battis\\SharedLogs\\Database\\Bindings\\EntriesBinding</title>
<polygon fill="none" stroke="black" points="496.388,-460 385.388,-460 385.388,-424 496.388,-424 496.388,-460"/>
<text text-anchor="middle" x="440.888" y="-439.2" font-family="Courier,monospace" font-size="11.00">EntriesBinding</text>
</g>
<!-- \\Battis\\SharedLogs\\Database\\Bindings\\EntriesBinding&#45;&gt;\\Battis\\SharedLogs\\Database\\Binding -->
<g id="edge12" class="edge"><title>\\Battis\\SharedLogs\\Database\\Bindings\\EntriesBinding&#45;&gt;\\Battis\\SharedLogs\\Database\\Binding</title>
<path fill="none" stroke="black" d="M385.069,-456.885C374.085,-460.432 362.743,-464.509 352.388,-469 328.76,-479.248 322.627,-485.7 298.395,-499.75"/>
<polygon fill="none" stroke="black" points="296.411,-496.851 289.432,-504.822 299.859,-502.943 296.411,-496.851"/>
</g>
<!-- \\Battis\\SharedLogs\\Exceptions\\ObjectException -->
<g id="node10" class="node"><title>\\Battis\\SharedLogs\\Exceptions\\ObjectException</title>
<polygon fill="none" stroke="black" points="499.888,-130 381.888,-130 381.888,-94 499.888,-94 499.888,-130"/>
<text text-anchor="middle" x="440.888" y="-109.2" font-family="Courier,monospace" font-size="11.00">ObjectException</text>
</g>
<!-- \\Battis\\SharedLogs\\Exception -->
<g id="node17" class="node"><title>\\Battis\\SharedLogs\\Exception</title>
<polygon fill="none" stroke="black" points="292.888,-103 215.888,-103 215.888,-67 292.888,-67 292.888,-103"/>
<text text-anchor="middle" x="254.388" y="-82.2" font-family="Courier,monospace" font-size="11.00">Exception</text>
</g>
<!-- \\Battis\\SharedLogs\\Exceptions\\ObjectException&#45;&gt;\\Battis\\SharedLogs\\Exception -->
<g id="edge3" class="edge"><title>\\Battis\\SharedLogs\\Exceptions\\ObjectException&#45;&gt;\\Battis\\SharedLogs\\Exception</title>
<path fill="none" stroke="black" d="M381.764,-103.494C356.44,-99.7882 327.122,-95.4977 303.103,-91.9828"/>
<polygon fill="none" stroke="black" points="303.563,-88.5128 293.161,-90.5279 302.549,-95.439 303.563,-88.5128"/>
</g>
<!-- \\Battis\\SharedLogs\\Exceptions\\BindingException -->
<g id="node11" class="node"><title>\\Battis\\SharedLogs\\Exceptions\\BindingException</title>
<polygon fill="none" stroke="black" points="503.388,-76 378.388,-76 378.388,-40 503.388,-40 503.388,-76"/>
<text text-anchor="middle" x="440.888" y="-55.2" font-family="Courier,monospace" font-size="11.00">BindingException</text>
</g>
<!-- \\Battis\\SharedLogs\\Exceptions\\BindingException&#45;&gt;\\Battis\\SharedLogs\\Exception -->
<g id="edge8" class="edge"><title>\\Battis\\SharedLogs\\Exceptions\\BindingException&#45;&gt;\\Battis\\SharedLogs\\Exception</title>
<path fill="none" stroke="black" d="M378.195,-67.0281C353.758,-70.6043 326.096,-74.6524 303.22,-78.0001"/>
<polygon fill="none" stroke="black" points="302.463,-74.5735 293.075,-79.4847 303.477,-81.4997 302.463,-74.5735"/>
</g>
<!-- \\Battis\\SharedLogs\\Objects\\User -->
<g id="node12" class="node"><title>\\Battis\\SharedLogs\\Objects\\User</title>
<polygon fill="none" stroke="black" points="467.888,-372 413.888,-372 413.888,-336 467.888,-336 467.888,-372"/>
<text text-anchor="middle" x="440.888" y="-351.2" font-family="Courier,monospace" font-size="11.00">User</text>
</g>
<!-- \\Battis\\SharedLogs\\Object -->
<g id="node16" class="node"><title>\\Battis\\SharedLogs\\Object</title>
<polygon fill="none" stroke="black" points="296.388,-291 212.388,-291 212.388,-255 296.388,-255 296.388,-291"/>
<text text-anchor="start" x="220.388" y="-276.2" font-family="Courier,monospace" font-size="11.00">«abstract»</text>
<text text-anchor="start" x="233.888" y="-264.2" font-family="Courier,monospace" font-size="11.00">Object</text>
</g>
<!-- \\Battis\\SharedLogs\\Objects\\User&#45;&gt;\\Battis\\SharedLogs\\Object -->
<g id="edge5" class="edge"><title>\\Battis\\SharedLogs\\Objects\\User&#45;&gt;\\Battis\\SharedLogs\\Object</title>
<path fill="none" stroke="black" d="M413.728,-347.467C396.068,-342.686 372.417,-335.554 352.388,-327 332.162,-318.362 310.694,-306.695 293.111,-296.417"/>
<polygon fill="none" stroke="black" points="294.684,-293.28 284.297,-291.191 291.114,-299.302 294.684,-293.28"/>
</g>
<!-- \\Battis\\SharedLogs\\Objects\\Device -->
<g id="node13" class="node"><title>\\Battis\\SharedLogs\\Objects\\Device</title>
<polygon fill="none" stroke="black" points="469.388,-318 412.388,-318 412.388,-282 469.388,-282 469.388,-318"/>
<text text-anchor="middle" x="440.888" y="-297.2" font-family="Courier,monospace" font-size="11.00">Device</text>
</g>
<!-- \\Battis\\SharedLogs\\Objects\\Device&#45;&gt;\\Battis\\SharedLogs\\Object -->
<g id="edge6" class="edge"><title>\\Battis\\SharedLogs\\Objects\\Device&#45;&gt;\\Battis\\SharedLogs\\Object</title>
<path fill="none" stroke="black" d="M412.266,-295.958C384.48,-291.892 340.974,-285.525 306.818,-280.526"/>
<polygon fill="none" stroke="black" points="306.948,-277.008 296.546,-279.023 305.934,-283.934 306.948,-277.008"/>
</g>
<!-- \\Battis\\SharedLogs\\Objects\\Entry -->
<g id="node14" class="node"><title>\\Battis\\SharedLogs\\Objects\\Entry</title>
<polygon fill="none" stroke="black" points="467.888,-264 413.888,-264 413.888,-228 467.888,-228 467.888,-264"/>
<text text-anchor="middle" x="440.888" y="-243.2" font-family="Courier,monospace" font-size="11.00">Entry</text>
</g>
<!-- \\Battis\\SharedLogs\\Objects\\Entry&#45;&gt;\\Battis\\SharedLogs\\Object -->
<g id="edge7" class="edge"><title>\\Battis\\SharedLogs\\Objects\\Entry&#45;&gt;\\Battis\\SharedLogs\\Object</title>
<path fill="none" stroke="black" d="M413.845,-249.811C386.09,-253.873 341.435,-260.408 306.593,-265.507"/>
<polygon fill="none" stroke="black" points="305.975,-262.06 296.588,-266.971 306.989,-268.986 305.975,-262.06"/>
</g>
<!-- \\Battis\\SharedLogs\\Objects\\Log -->
<g id="node15" class="node"><title>\\Battis\\SharedLogs\\Objects\\Log</title>
<polygon fill="none" stroke="black" points="467.888,-210 413.888,-210 413.888,-174 467.888,-174 467.888,-210"/>
<text text-anchor="middle" x="440.888" y="-189.2" font-family="Courier,monospace" font-size="11.00">Log</text>
</g>
<!-- \\Battis\\SharedLogs\\Objects\\Log&#45;&gt;\\Battis\\SharedLogs\\Object -->
<g id="edge11" class="edge"><title>\\Battis\\SharedLogs\\Objects\\Log&#45;&gt;\\Battis\\SharedLogs\\Object</title>
<path fill="none" stroke="black" d="M413.728,-198.533C396.068,-203.314 372.417,-210.446 352.388,-219 332.162,-227.638 310.694,-239.305 293.111,-249.583"/>
<polygon fill="none" stroke="black" points="291.114,-246.698 284.297,-254.809 294.684,-252.72 291.114,-246.698"/>
</g>
<!-- \\JsonSerializable -->
<g id="node18" class="node"><title>\\JsonSerializable</title>
<ellipse fill="none" stroke="black" cx="70.1938" cy="-273" rx="70.3881" ry="18"/>
<text text-anchor="middle" x="70.1938" y="-269.3" font-family="Times New Roman,serif" font-size="14.00" fill="gray">\JsonSerializable</text>
</g>
<!-- \\Battis\\SharedLogs\\Object&#45;&gt;\\JsonSerializable -->
<g id="edge1" class="edge"><title>\\Battis\\SharedLogs\\Object&#45;&gt;\\JsonSerializable</title>
<path fill="none" stroke="black" stroke-dasharray="1,5" d="M212.045,-273C193.91,-273 171.979,-273 150.879,-273"/>
<polygon fill="none" stroke="black" points="150.607,-269.5 140.607,-273 150.607,-276.5 150.607,-269.5"/>
</g>
<!-- \\Exception -->
<g id="node19" class="node"><title>\\Exception</title>
<ellipse fill="none" stroke="black" cx="70.1938" cy="-85" rx="42.4939" ry="18"/>
<text text-anchor="middle" x="70.1938" y="-81.3" font-family="Times New Roman,serif" font-size="14.00" fill="gray">xception</text>
</g>
<!-- \\Battis\\SharedLogs\\Exception&#45;&gt;\\Exception -->
<g id="edge9" class="edge"><title>\\Battis\\SharedLogs\\Exception&#45;&gt;\\Exception</title>
<path fill="none" stroke="black" d="M215.637,-85C188.785,-85 152.384,-85 122.843,-85"/>
<polygon fill="none" stroke="black" points="122.707,-81.5001 112.707,-85 122.707,-88.5001 122.707,-81.5001"/>
</g>
</g>
</svg>
