<?xml version="1.0" encoding="UTF-8" standalone="no"?>
<!DOCTYPE svg PUBLIC "-//W3C//DTD SVG 1.1//EN"
 "http://www.w3.org/Graphics/SVG/1.1/DTD/svg11.dtd">
<!-- Generated by graphviz version 2.38.0 (20140413.2041)
 -->
<!-- Title: G Pages: 1 -->
<svg width="556pt" height="1022pt"
 viewBox="0.00 0.00 556.39 1022.00" xmlns="http://www.w3.org/2000/svg" xmlns:xlink="http://www.w3.org/1999/xlink">
<g id="graph0" class="graph" transform="scale(1 1) rotate(0) translate(4 1018)">
<title>G</title>
<polygon fill="white" stroke="none" points="-4,4 -4,-1018 552.388,-1018 552.388,4 -4,4"/>
<g id="clust1" class="cluster"><title>cluster_Global</title>
<path fill="none" stroke="gray" d="M192.388,-8C192.388,-8 528.388,-8 528.388,-8 534.388,-8 540.388,-14 540.388,-20 540.388,-20 540.388,-994 540.388,-994 540.388,-1000 534.388,-1006 528.388,-1006 528.388,-1006 192.388,-1006 192.388,-1006 186.388,-1006 180.388,-1000 180.388,-994 180.388,-994 180.388,-20 180.388,-20 180.388,-14 186.388,-8 192.388,-8"/>
<text text-anchor="middle" x="360.388" y="-993.2" font-family="Times New Roman,serif" font-size="11.00" fill="gray">Global</text>
</g>
<g id="clust2" class="cluster"><title>cluster_\Battis</title>
<path fill="none" stroke="gray" d="M200.388,-16C200.388,-16 520.388,-16 520.388,-16 526.388,-16 532.388,-22 532.388,-28 532.388,-28 532.388,-966 532.388,-966 532.388,-972 526.388,-978 520.388,-978 520.388,-978 200.388,-978 200.388,-978 194.388,-978 188.388,-972 188.388,-966 188.388,-966 188.388,-28 188.388,-28 188.388,-22 194.388,-16 200.388,-16"/>
<text text-anchor="middle" x="360.388" y="-965.2" font-family="Times New Roman,serif" font-size="11.00" fill="gray">Battis</text>
</g>
<g id="clust3" class="cluster"><title>cluster_\Battis\SharedLogs</title>
<path fill="none" stroke="gray" d="M208.388,-24C208.388,-24 512.388,-24 512.388,-24 518.388,-24 524.388,-30 524.388,-36 524.388,-36 524.388,-938 524.388,-938 524.388,-944 518.388,-950 512.388,-950 512.388,-950 208.388,-950 208.388,-950 202.388,-950 196.388,-944 196.388,-938 196.388,-938 196.388,-36 196.388,-36 196.388,-30 202.388,-24 208.388,-24"/>
<text text-anchor="middle" x="360.388" y="-937.2" font-family="Times New Roman,serif" font-size="11.00" fill="gray">SharedLogs</text>
</g>
<g id="clust4" class="cluster"><title>cluster_\Battis\SharedLogs\Database</title>
<path fill="none" stroke="gray" d="M216.388,-408C216.388,-408 504.388,-408 504.388,-408 510.388,-408 516.388,-414 516.388,-420 516.388,-420 516.388,-910 516.388,-910 516.388,-916 510.388,-922 504.388,-922 504.388,-922 216.388,-922 216.388,-922 210.388,-922 204.388,-916 204.388,-910 204.388,-910 204.388,-420 204.388,-420 204.388,-414 210.388,-408 216.388,-408"/>
<text text-anchor="middle" x="360.388" y="-909.2" font-family="Times New Roman,serif" font-size="11.00" fill="gray">Database</text>
</g>
<g id="clust5" class="cluster"><title>cluster_\Battis\SharedLogs\Database\Bindings</title>
<path fill="none" stroke="gray" d="M357.388,-416C357.388,-416 496.388,-416 496.388,-416 502.388,-416 508.388,-422 508.388,-428 508.388,-428 508.388,-882 508.388,-882 508.388,-888 502.388,-894 496.388,-894 496.388,-894 357.388,-894 357.388,-894 351.388,-894 345.388,-888 345.388,-882 345.388,-882 345.388,-428 345.388,-428 345.388,-422 351.388,-416 357.388,-416"/>
<text text-anchor="middle" x="426.888" y="-881.2" font-family="Times New Roman,serif" font-size="11.00" fill="gray">Bindings</text>
</g>
<g id="clust6" class="cluster"><title>cluster_\Battis\SharedLogs\Database\Bindings\Traits</title>
<path fill="none" stroke="gray" d="M365.388,-632C365.388,-632 488.388,-632 488.388,-632 494.388,-632 500.388,-638 500.388,-644 500.388,-644 500.388,-854 500.388,-854 500.388,-860 494.388,-866 488.388,-866 488.388,-866 365.388,-866 365.388,-866 359.388,-866 353.388,-860 353.388,-854 353.388,-854 353.388,-644 353.388,-644 353.388,-638 359.388,-632 365.388,-632"/>
<text text-anchor="middle" x="426.888" y="-853.2" font-family="Times New Roman,serif" font-size="11.00" fill="gray">Traits</text>
</g>
<g id="clust8" class="cluster"><title>cluster_\Battis\SharedLogs\Objects</title>
<path fill="none" stroke="gray" d="M403.888,-166C403.888,-166 449.888,-166 449.888,-166 455.888,-166 461.888,-172 461.888,-178 461.888,-178 461.888,-388 461.888,-388 461.888,-394 455.888,-400 449.888,-400 449.888,-400 403.888,-400 403.888,-400 397.888,-400 391.888,-394 391.888,-388 391.888,-388 391.888,-178 391.888,-178 391.888,-172 397.888,-166 403.888,-166"/>
<text text-anchor="middle" x="426.888" y="-387.2" font-family="Times New Roman,serif" font-size="11.00" fill="gray">Objects</text>
</g>
<g id="clust7" class="cluster"><title>cluster_\Battis\SharedLogs\Exceptions</title>
<path fill="none" stroke="gray" d="M374.388,-32C374.388,-32 479.388,-32 479.388,-32 485.388,-32 491.388,-38 491.388,-44 491.388,-44 491.388,-146 491.388,-146 491.388,-152 485.388,-158 479.388,-158 479.388,-158 374.388,-158 374.388,-158 368.388,-158 362.388,-152 362.388,-146 362.388,-146 362.388,-44 362.388,-44 362.388,-38 368.388,-32 374.388,-32"/>
<text text-anchor="middle" x="426.888" y="-145.2" font-family="Times New Roman,serif" font-size="11.00" fill="gray">Exceptions</text>
</g>
<!-- \\Battis\\SharedLogs\\Database\\Bindings\\Traits\\EntriesBindingTrait -->
<g id="node1" class="node"><title>\\Battis\\SharedLogs\\Database\\Bindings\\Traits\\EntriesBindingTrait</title>
<polygon fill="none" stroke="black" points="492.388,-838 361.388,-838 361.388,-802 492.388,-802 492.388,-838"/>
<text text-anchor="middle" x="426.888" y="-817.2" font-family="Courier,monospace" font-size="11.00">EntriesBindingTrait</text>
</g>
<!-- \\Battis\\SharedLogs\\Database\\Bindings\\Traits\\DevicesBindingTrait -->
<g id="node2" class="node"><title>\\Battis\\SharedLogs\\Database\\Bindings\\Traits\\DevicesBindingTrait</title>
<polygon fill="none" stroke="black" points="492.388,-784 361.388,-784 361.388,-748 492.388,-748 492.388,-784"/>
<text text-anchor="middle" x="426.888" y="-763.2" font-family="Courier,monospace" font-size="11.00">DevicesBindingTrait</text>
</g>
<!-- \\Battis\\SharedLogs\\Database\\Bindings\\Traits\\LogsBindingTrait -->
<g id="node3" class="node"><title>\\Battis\\SharedLogs\\Database\\Bindings\\Traits\\LogsBindingTrait</title>
<polygon fill="none" stroke="black" points="483.388,-730 370.388,-730 370.388,-694 483.388,-694 483.388,-730"/>
<text text-anchor="middle" x="426.888" y="-709.2" font-family="Courier,monospace" font-size="11.00">LogsBindingTrait</text>
</g>
<!-- \\Battis\\SharedLogs\\Database\\Bindings\\Traits\\UsersBindingTrait -->
<g id="node4" class="node"><title>\\Battis\\SharedLogs\\Database\\Bindings\\Traits\\UsersBindingTrait</title>
<polygon fill="none" stroke="black" points="486.388,-676 367.388,-676 367.388,-640 486.388,-640 486.388,-676"/>
<text text-anchor="middle" x="426.888" y="-655.2" font-family="Courier,monospace" font-size="11.00">UsersBindingTrait</text>
</g>
<!-- \\Battis\\SharedLogs\\Database\\Bindings\\LogsBinding -->
<g id="node5" class="node"><title>\\Battis\\SharedLogs\\Database\\Bindings\\LogsBinding</title>
<polygon fill="none" stroke="black" points="468.388,-622 385.388,-622 385.388,-586 468.388,-586 468.388,-622"/>
<text text-anchor="middle" x="426.888" y="-601.2" font-family="Courier,monospace" font-size="11.00">LogsBinding</text>
</g>
<!-- \\Battis\\SharedLogs\\Database\\Binding -->
<g id="node9" class="node"><title>\\Battis\\SharedLogs\\Database\\Binding</title>
<polygon fill="none" stroke="black" points="289.388,-541 212.388,-541 212.388,-505 289.388,-505 289.388,-541"/>
<text text-anchor="start" x="220.388" y="-526.2" font-family="Courier,monospace" font-size="11.00">«abstract»</text>
<text text-anchor="start" x="229.388" y="-514.2" font-family="Courier,monospace" font-size="11.00">Binding</text>
</g>
<!-- \\Battis\\SharedLogs\\Database\\Bindings\\LogsBinding&#45;&gt;\\Battis\\SharedLogs\\Database\\Binding -->
<g id="edge2" class="edge"><title>\\Battis\\SharedLogs\\Database\\Bindings\\LogsBinding&#45;&gt;\\Battis\\SharedLogs\\Database\\Binding</title>
<path fill="none" stroke="black" d="M385.152,-592.091C372.228,-587.85 358.019,-582.697 345.388,-577 326.067,-568.287 305.575,-556.737 288.715,-546.556"/>
<polygon fill="none" stroke="black" points="290.108,-543.305 279.752,-541.067 286.452,-549.274 290.108,-543.305"/>
</g>
<!-- \\Battis\\SharedLogs\\Database\\Bindings\\UsersBinding -->
<g id="node6" class="node"><title>\\Battis\\SharedLogs\\Database\\Bindings\\UsersBinding</title>
<polygon fill="none" stroke="black" points="471.388,-568 382.388,-568 382.388,-532 471.388,-532 471.388,-568"/>
<text text-anchor="middle" x="426.888" y="-547.2" font-family="Courier,monospace" font-size="11.00">UsersBinding</text>
</g>
<!-- \\Battis\\SharedLogs\\Database\\Bindings\\UsersBinding&#45;&gt;\\Battis\\SharedLogs\\Database\\Binding -->
<g id="edge4" class="edge"><title>\\Battis\\SharedLogs\\Database\\Bindings\\UsersBinding&#45;&gt;\\Battis\\SharedLogs\\Database\\Binding</title>
<path fill="none" stroke="black" d="M381.98,-543.187C356.828,-539.284 325.246,-534.383 299.499,-530.388"/>
<polygon fill="none" stroke="black" points="300.001,-526.924 289.583,-528.849 298.928,-533.841 300.001,-526.924"/>
</g>
<!-- \\Battis\\SharedLogs\\Database\\Bindings\\DevicesBinding -->
<g id="node7" class="node"><title>\\Battis\\SharedLogs\\Database\\Bindings\\DevicesBinding</title>
<polygon fill="none" stroke="black" points="477.388,-514 376.388,-514 376.388,-478 477.388,-478 477.388,-514"/>
<text text-anchor="middle" x="426.888" y="-493.2" font-family="Courier,monospace" font-size="11.00">DevicesBinding</text>
</g>
<!-- \\Battis\\SharedLogs\\Database\\Bindings\\DevicesBinding&#45;&gt;\\Battis\\SharedLogs\\Database\\Binding -->
<g id="edge10" class="edge"><title>\\Battis\\SharedLogs\\Database\\Bindings\\DevicesBinding&#45;&gt;\\Battis\\SharedLogs\\Database\\Binding</title>
<path fill="none" stroke="black" d="M376.026,-503.737C352.057,-507.456 323.458,-511.894 299.755,-515.572"/>
<polygon fill="none" stroke="black" points="298.929,-512.158 289.584,-517.15 300.003,-519.076 298.929,-512.158"/>
</g>
<!-- \\Battis\\SharedLogs\\Database\\Bindings\\EntriesBinding -->
<g id="node8" class="node"><title>\\Battis\\SharedLogs\\Database\\Bindings\\EntriesBinding</title>
<polygon fill="none" stroke="black" points="477.388,-460 376.388,-460 376.388,-424 477.388,-424 477.388,-460"/>
<text text-anchor="middle" x="426.888" y="-439.2" font-family="Courier,monospace" font-size="11.00">EntriesBinding</text>
</g>
<!-- \\Battis\\SharedLogs\\Database\\Bindings\\EntriesBinding&#45;&gt;\\Battis\\SharedLogs\\Database\\Binding -->
<g id="edge12" class="edge"><title>\\Battis\\SharedLogs\\Database\\Bindings\\EntriesBinding&#45;&gt;\\Battis\\SharedLogs\\Database\\Binding</title>
<path fill="none" stroke="black" d="M376.33,-456.884C365.958,-460.48 355.197,-464.576 345.388,-469 342.448,-470.326 315.656,-485.827 291.501,-499.883"/>
<polygon fill="none" stroke="black" points="289.651,-496.91 282.771,-504.967 293.173,-502.959 289.651,-496.91"/>
</g>
<!-- \\Battis\\SharedLogs\\Exceptions\\ObjectException -->
<g id="node10" class="node"><title>\\Battis\\SharedLogs\\Exceptions\\ObjectException</title>
<polygon fill="none" stroke="black" points="480.388,-130 373.388,-130 373.388,-94 480.388,-94 480.388,-130"/>
<text text-anchor="middle" x="426.888" y="-109.2" font-family="Courier,monospace" font-size="11.00">ObjectException</text>
</g>
<!-- \\Battis\\SharedLogs\\Exception -->
<g id="node17" class="node"><title>\\Battis\\SharedLogs\\Exception</title>
<polygon fill="none" stroke="black" points="286.388,-103 215.388,-103 215.388,-67 286.388,-67 286.388,-103"/>
<text text-anchor="middle" x="250.888" y="-82.2" font-family="Courier,monospace" font-size="11.00">Exception</text>
</g>
<!-- \\Battis\\SharedLogs\\Exceptions\\ObjectException&#45;&gt;\\Battis\\SharedLogs\\Exception -->
<g id="edge3" class="edge"><title>\\Battis\\SharedLogs\\Exceptions\\ObjectException&#45;&gt;\\Battis\\SharedLogs\\Exception</title>
<path fill="none" stroke="black" d="M373.21,-103.826C348.726,-100.027 319.923,-95.5572 296.527,-91.9268"/>
<polygon fill="none" stroke="black" points="296.945,-88.4499 286.527,-90.3751 295.872,-95.3671 296.945,-88.4499"/>
</g>
<!-- \\Battis\\SharedLogs\\Exceptions\\BindingException -->
<g id="node11" class="node"><title>\\Battis\\SharedLogs\\Exceptions\\BindingException</title>
<polygon fill="none" stroke="black" points="483.388,-76 370.388,-76 370.388,-40 483.388,-40 483.388,-76"/>
<text text-anchor="middle" x="426.888" y="-55.2" font-family="Courier,monospace" font-size="11.00">BindingException</text>
</g>
<!-- \\Battis\\SharedLogs\\Exceptions\\BindingException&#45;&gt;\\Battis\\SharedLogs\\Exception -->
<g id="edge8" class="edge"><title>\\Battis\\SharedLogs\\Exceptions\\BindingException&#45;&gt;\\Battis\\SharedLogs\\Exception</title>
<path fill="none" stroke="black" d="M370.354,-66.6172C346.464,-70.3244 318.914,-74.5993 296.397,-78.0933"/>
<polygon fill="none" stroke="black" points="295.782,-74.6467 286.437,-79.6388 296.856,-81.564 295.782,-74.6467"/>
</g>
<!-- \\Battis\\SharedLogs\\Objects\\User -->
<g id="node12" class="node"><title>\\Battis\\SharedLogs\\Objects\\User</title>
<polygon fill="none" stroke="black" points="453.888,-372 399.888,-372 399.888,-336 453.888,-336 453.888,-372"/>
<text text-anchor="middle" x="426.888" y="-351.2" font-family="Courier,monospace" font-size="11.00">User</text>
</g>
<!-- \\Battis\\SharedLogs\\Object -->
<g id="node16" class="node"><title>\\Battis\\SharedLogs\\Object</title>
<polygon fill="none" stroke="black" points="289.388,-291 212.388,-291 212.388,-255 289.388,-255 289.388,-291"/>
<text text-anchor="start" x="220.388" y="-276.2" font-family="Courier,monospace" font-size="11.00">«abstract»</text>
<text text-anchor="start" x="232.388" y="-264.2" font-family="Courier,monospace" font-size="11.00">Object</text>
</g>
<!-- \\Battis\\SharedLogs\\Objects\\User&#45;&gt;\\Battis\\SharedLogs\\Object -->
<g id="edge5" class="edge"><title>\\Battis\\SharedLogs\\Objects\\User&#45;&gt;\\Battis\\SharedLogs\\Object</title>
<path fill="none" stroke="black" d="M399.643,-346.653C383.658,-341.823 362.991,-334.939 345.388,-327 326.067,-318.287 305.575,-306.737 288.715,-296.556"/>
<polygon fill="none" stroke="black" points="290.108,-293.305 279.752,-291.067 286.452,-299.274 290.108,-293.305"/>
</g>
<!-- \\Battis\\SharedLogs\\Objects\\Device -->
<g id="node13" class="node"><title>\\Battis\\SharedLogs\\Objects\\Device</title>
<polygon fill="none" stroke="black" points="453.888,-318 399.888,-318 399.888,-282 453.888,-282 453.888,-318"/>
<text text-anchor="middle" x="426.888" y="-297.2" font-family="Courier,monospace" font-size="11.00">Device</text>
</g>
<!-- \\Battis\\SharedLogs\\Objects\\Device&#45;&gt;\\Battis\\SharedLogs\\Object -->
<g id="edge6" class="edge"><title>\\Battis\\SharedLogs\\Objects\\Device&#45;&gt;\\Battis\\SharedLogs\\Object</title>
<path fill="none" stroke="black" d="M399.838,-295.958C373.404,-291.856 331.884,-285.413 299.548,-280.396"/>
<polygon fill="none" stroke="black" points="299.821,-276.896 289.403,-278.821 298.748,-283.813 299.821,-276.896"/>
</g>
<!-- \\Battis\\SharedLogs\\Objects\\Entry -->
<g id="node14" class="node"><title>\\Battis\\SharedLogs\\Objects\\Entry</title>
<polygon fill="none" stroke="black" points="453.888,-264 399.888,-264 399.888,-228 453.888,-228 453.888,-264"/>
<text text-anchor="middle" x="426.888" y="-243.2" font-family="Courier,monospace" font-size="11.00">Entry</text>
</g>
<!-- \\Battis\\SharedLogs\\Objects\\Entry&#45;&gt;\\Battis\\SharedLogs\\Object -->
<g id="edge7" class="edge"><title>\\Battis\\SharedLogs\\Objects\\Entry&#45;&gt;\\Battis\\SharedLogs\\Object</title>
<path fill="none" stroke="black" d="M399.838,-250.042C373.404,-254.144 331.884,-260.587 299.548,-265.604"/>
<polygon fill="none" stroke="black" points="298.748,-262.187 289.403,-267.179 299.821,-269.104 298.748,-262.187"/>
</g>
<!-- \\Battis\\SharedLogs\\Objects\\Log -->
<g id="node15" class="node"><title>\\Battis\\SharedLogs\\Objects\\Log</title>
<polygon fill="none" stroke="black" points="453.888,-210 399.888,-210 399.888,-174 453.888,-174 453.888,-210"/>
<text text-anchor="middle" x="426.888" y="-189.2" font-family="Courier,monospace" font-size="11.00">Log</text>
</g>
<!-- \\Battis\\SharedLogs\\Objects\\Log&#45;&gt;\\Battis\\SharedLogs\\Object -->
<g id="edge11" class="edge"><title>\\Battis\\SharedLogs\\Objects\\Log&#45;&gt;\\Battis\\SharedLogs\\Object</title>
<path fill="none" stroke="black" d="M399.643,-199.347C383.658,-204.177 362.991,-211.061 345.388,-219 326.067,-227.713 305.575,-239.263 288.715,-249.444"/>
<polygon fill="none" stroke="black" points="286.452,-246.726 279.752,-254.933 290.108,-252.695 286.452,-246.726"/>
</g>
<!-- \\JsonSerializable -->
<g id="node18" class="node"><title>\\JsonSerializable</title>
<ellipse fill="none" stroke="black" cx="70.1938" cy="-273" rx="70.3881" ry="18"/>
<text text-anchor="middle" x="70.1938" y="-269.3" font-family="Times New Roman,serif" font-size="14.00" fill="gray">\JsonSerializable</text>
</g>
<!-- \\Battis\\SharedLogs\\Object&#45;&gt;\\JsonSerializable -->
<g id="edge1" class="edge"><title>\\Battis\\SharedLogs\\Object&#45;&gt;\\JsonSerializable</title>
<path fill="none" stroke="black" stroke-dasharray="1,5" d="M211.991,-273C194.037,-273 171.879,-273 150.498,-273"/>
<polygon fill="none" stroke="black" points="150.417,-269.5 140.417,-273 150.417,-276.5 150.417,-269.5"/>
</g>
<!-- \\Exception -->
<g id="node19" class="node"><title>\\Exception</title>
<ellipse fill="none" stroke="black" cx="70.1938" cy="-85" rx="42.4939" ry="18"/>
<text text-anchor="middle" x="70.1938" y="-81.3" font-family="Times New Roman,serif" font-size="14.00" fill="gray">xception</text>
</g>
<!-- \\Battis\\SharedLogs\\Exception&#45;&gt;\\Exception -->
<g id="edge9" class="edge"><title>\\Battis\\SharedLogs\\Exception&#45;&gt;\\Exception</title>
<path fill="none" stroke="black" d="M215.009,-85C188.752,-85 152.345,-85 122.733,-85"/>
<polygon fill="none" stroke="black" points="122.569,-81.5001 112.569,-85 122.569,-88.5001 122.569,-81.5001"/>
</g>
</g>
</svg>
